<mxfile host="app.diagrams.net" agent="Mozilla/5.0 (Windows NT 10.0; Win64; x64) AppleWebKit/537.36 (KHTML, like Gecko) Chrome/127.0.0.0 Safari/537.36" version="24.7.6">
  <diagram name="Page-1" id="_3mH_CFvkvuprhIgcT8y">
    <mxGraphModel dx="756" dy="425" grid="0" gridSize="10" guides="1" tooltips="1" connect="1" arrows="1" fold="1" page="1" pageScale="1" pageWidth="850" pageHeight="1100" math="0" shadow="0">
      <root>
        <mxCell id="0" />
        <mxCell id="1" parent="0" />
        <mxCell id="KOHqjul1uBOGln52bO3l-8" value="" style="edgeStyle=orthogonalEdgeStyle;rounded=0;orthogonalLoop=1;jettySize=auto;html=1;" edge="1" parent="1" source="KOHqjul1uBOGln52bO3l-1" target="KOHqjul1uBOGln52bO3l-4">
          <mxGeometry relative="1" as="geometry" />
        </mxCell>
        <mxCell id="KOHqjul1uBOGln52bO3l-1" value="&lt;i&gt;Data&amp;nbsp;&lt;/i&gt;&lt;div&gt;&lt;i&gt;Collection&lt;/i&gt;&lt;/div&gt;" style="rounded=0;whiteSpace=wrap;html=1;" vertex="1" parent="1">
          <mxGeometry x="150" y="160" width="90" height="40" as="geometry" />
        </mxCell>
        <mxCell id="KOHqjul1uBOGln52bO3l-2" value="" style="shape=image;verticalLabelPosition=bottom;labelBackgroundColor=default;verticalAlign=top;aspect=fixed;imageAspect=0;image=data:image/png,iVBORw0KGgoAAAANSUhEUgAAAt8AAABzCAYAAABAS254AAAAAXNSR0IArs4c6QAAAARnQU1BAACxjwv8YQUAAAAJcEhZcwAADsMAAA7DAcdvqGQAADMWSURBVHhe7Z0HmBVF1oYL1FVBRcCsoASzqygILqKCATCsuq6IGEHRQQEziAHDoq5gRlRQMSti2FUUI2ZMCApr+FcURMEMCGJcQ//9nulzn+Z6B2aGmcu9M9/7PD1zu7q7urrrdNVX1aeq60QxQQghhBBCCFHt1E3+CyGEEEIIIaoZiW8hhBBCCCHyhMS3EEIIIYQQeULiWwghhBBCiDwh8S2EEEIIIUSekPgWQgghhBAiT0h8CyGEEEIIkSckvoUQQgghhMgTEt9CCCGEEELkCYlvIYQQQggh8oTEtxBCCCGEEHlC4lsIIYQQQog8USeKSX4vlTXXXDP5JQqFNm3ahAkTJiRrxcXUqVNDx44dkzVRKBxzzDHhyiuvTNaKi7vuuiv069cvWROFwogRI8IRRxyRrBUXp556arj11luTNVEIIFtefPHFsN122yUhxcWee+4ZJk+enKyJQmHBggXJr+qnQuL78MMPD8OGDUvWRCFw3nnnhdGjRydrxcWUKVPCc889F3r06JGEiOXNwoULzZ6uuOKKJKS4IO3rrbdeaNWqVRIiljfTpk0LX3zxhTXqipHTTz89HHvssaFBgwZJiFjejBkzJnTq1Cm0bt06CSkueBaGDBmSrIlCYMCAAeGee+5J1qqfConvPn36hJEjRyZrohDo27dvuO6665K14gLx/fbbb4eePXsmIWJ5s2jRIqsUirWRfcstt5jw3mGHHZIQsbx566237C1Xr169kpDiYuDAgdbJsdpqqyUhYnnDmwh6vYv1OS/merumUlJSEkaNGpWsVT8V8vn+/fffk1+iUKhA26kg+e2335JfohD49ddfk1/Fi2yqsKgJNlUTrqEmUezPeLHX2zWRfOtbDbgUQgghhBAiT0h8CyGEEEIIkSckvoUQQgghhMgTEt9CCCGEEELkCYlvIYQQQggh8oTEtxBCCCGEEHlC4lsIIYQQQog8IfEthBBCCCFEnpD4FkIIIYQQIk9IfAshhBBCCJEnJL6FEEIIIYTIExLfQgghhBBC5AmJbyGEEEIIIfKExLcQQgghhBB5QuJbCFGr+Pbbb8Muu+wSWrRoYcuBBx4Yfv7552RrzaFfv352faNGjbL1V1991dZ79Ohh60vj+OOPD1dccUWytji//fZb2GGHHcILL7yQhAghhCgvEt9CiFrF77//HmbMmBFmzpxpy8MPPxyefvrpZGvN4dNPP7Xre+edd2zdr/mTTz6x9aXx2Wefha+//jpZW5woisJbb70Vvv/++yRECCFEeZH4FkLUKhCOn3/+ebj44ovDhAkTQtu2bcPjjz9m266++uqw55572jb48ssvraf42GOPDT179gz/93//F/bbbz/b56GHHrJ9TjrpJDtu7733DgMHDrQwGDx4sO03ZswYW586daqts7z88ssWRpzXX3+9haV7mTln//79LR1sB+JmP84H//rXv6x328MXLFhg4c6KK65o/xHd8MEHH9j/P/3pT/Z/zpw51uvPsa+99qqF/fLLL+Hvf/976N27dyy852b2ffzxx22/Y445Jvz0009hhRVWsPC6dVWFCCFEhYkronJz3HHHJb9EoXDCCSckv4qPyZMnRzfffHOyJgqB+fPnRwMGDEjWio/Ro0dHkyZNStZywzVS9Pl+sdiMDj744GjKlCnRWmutZdvq1asXPf/889Gnn34arbHGGhbWokWL6OSTT7bfLLvttlv022+/Rdttt13UuHFjC2PfDz/80OIiDsK22WabKBbGUbdu3TLHHnbYYXbujTfeOHNss2bNorlz50aPPvpoZr/GjdeKTjvttOiNN97IhMWCOHrvvfeiWJRHK6+8ciZ8+PDhFqcTC+uoSZON4qWJXcfRRx8dNWzY0NINp5xySubYffbZJ/rf//4X3XvvvZmw+vVXiy655BK7X+3atc2EX3tt6XlIdyzK7feS4D7fcsstyVrxwfPwzTffJGuiELjpppvsGStWirnerqn07t07+ZUf1G0hhKhV1KlTx/6ff/75oU+fPuHBBx8M7du3D7HoDeutt1647777wu677x7uuuuOsMoqq5iPOL3d11xzTYhFaoiFpPVI4++MCwvx1au3ShgyZIjtG4tvi5O4RowYYW4fzzzzbOjevXu47bbbwqmnnhruuece64GPRV2IBXg455xzwkcffWS90fhot2nTJlx99VVh3ry5YaWVVgpxo8B6wGNxHGKRbOdYddVVzVf9rLPOCq1btw4TJ06063JI2xZbbBFmz55t7ib/+c9/zE+b36ST3vpYBFi6H3vssfDSSy+F6667LnTo0MG2ff/9d9Z7Tvpff32S3RfO9a9//Ts5gxBCiMog8S2EqHU0bdrUXCkQumuuuaa5VDAgETeKWbNmhR9++CH+/0n49ddfbf+jjz467LvvvqFz586hS5cu4b///a+FI6Bx5zjwwINMQDdq1MjcMhCyCPi+ffuGG2+8MTRpspG5c2y//fbmugKIdkTwkUceGc4++2wLY/2RRx4PXbt2CSeffErYbbddLb5NNtnEhDJpA86LuG7SpIk1Itq1a/eHQaMMitx6623s95tvvmk+4FtuuaVdo7uinHzyyXbu5s2bh1deedXSTUODcEQ4149o57o4Nz7g06dPD999913cMJhncQghhKgYEt9CiFoHgw7xd6YX+tJLLw1//vOfY6H5mwlNfKifffZZE+A+oBDxC/SOX3vttSaSHfbZfPPNTUzT2x3r4vDjjz+bqIfjjjsu7Ljjjub7zbJo0SILdzbbbLNQr169sOGGG5pgDuFX6+mGZs2ah7lz51rvNT7h+KoDApp9N9poo7DyyiuHxo0bW3gaxDmNjL/85S/W0968+SbWi87y1VdfWfpWX311i2ubbbYJ8+fPj+NplIlr3XXXtTgQ2Wzjvtx8883mW06ahBBCVA6JbyFErYJeY0B4X3nllaGkpMQGGkbRb6Fly5bhxBNPtIWe7lIxHEyk0rP817/+NdSvXz9cdtllFu5xEQas161bxwSxC9Snn34qPPfcc+Gwww6LhfBO4R//+IeFI2yBY/lNzzTH4YYyf/43tu3TT+eYKMctZOTIkeYOQm+3H+sDIj2d2bDf5ptvEV5//fU43k1sf9xWGjZsaCKahgNppieceOfNm58ZuPnFF1/YwMoGDRqENdZYw3reuS+46vh5hRBCVByJbyFErSTdA01v8Dbb/DlssMEG4YgjjgiHH364zSTiohoQrcBxw4cPt98+24eLYYQsAnqnndqaTzg95Z07dwn33HN3WG211cN7771nIpqedI5FaHOsx4PQxX8bsX7//ffFwn2C+Z3jqkKv+k033WS94D7biIv/siDerbbayn63bLmppY2GBr3tcMcdd1hv9rvvvht23XUXc5VhBpi77rrLZmThPBxPTz/3hQU3Ge6TEEKIylFt4hufwFdeeSWzMJio0GGwE6+dKwPX59eK72j2q+U0vM5mDt3aBFO28eq6MmBL3FO/vwwYKzZIN6/6KwPH+bUvLR56QHGpWJooqwkgQnmWKosLZge/b3qIGXy58847m5uHT9eH7zPCtUuXrmHYsGHmK05vMLYJ3vNM7zi/DzroIOvJpqccf+levY4NW265RTjrrLNNkOOiwrEff/zxYungN+IW3+tDDulurh/kZevWbWxAJR++WW211ax8QUSzAOnz3w6NBdKz/fatbJ1efcIQzricMG3gRRddZHHy0SFENr3zTz75pKUB4U28+InTSOCecG8GDBiQsa/se1jMcE2U4+7nX1VQXvmzSznmNlMdTJkyxZ4LfPM5V2XgjQdpff/9920du2LMAM9Gto3lAtcon1s+FzQki0EPVAU8fzzj1QU2i2Zx+2Ih/8sLb7kmTZq0TPUFzwsdDWnN4/qPbwH484Q9EbZw4UJbXxK8kXvjjTfKfKNH2Tpt2rRkrTipNvGNQVBY+8Kr3ewBQYUGPVKHHnposlYxmDHAr5UKilkJyjIcKrdbb701Wasd8OBxf8v6aMeSoLfQBRELPrQ//vhjsrU4OOWUU6yQqwz//ve/M9fOMnTosDKfJe4VA+iWpTAtFl588UXroV1SQzcXiMpOnTqZeE7DQENcKxChzNl9wQUXWMXRsWNH6xnH1eLQQ7vb9rPOGmT709BBsLqfNEKV/bBX5gZnX3yl27f/iwly1s899xxbR6QweBOXFkQsAhhRvuuuu4ZmzZqZON5///1NvDEAk8GanL+k5HibJYVe8k033dTOi6Bm0GQavma5zjrrmIBn9hTSxm8/hgGiDNQkTVwrs6fQ44+Ncd4DD/ybpQ2/8vPOO8/2Iw033HCDpRNf8ux7WMzwzDB3Oi4+/pajKrjwwgszzy528cgjjyRbqh5cmigvJk+eHM4444wktGIwLoG00igD7HSPPfYIO+20U7l8/TkeOyoL4r3kkkuStZoN9RRvlij7q6OhisZAs7h9sfhbufKAGKYMKEurlAeukTIy3aCi8UVaeJNGpxvXTr1NWHkahegFvr9QVtnOjFMMYC9q4gKn3FRknu+4lRzVrVs3Wn/99W3hVC+//LJt+/LLL6M5c+ZE8Y219biVE8WtbZvjlvC4dW3hP/zwg63HLaXos88+i+KK0OacZc5ciIVc9O2331o8HM8+bI9bXXZcbBQWF+Hz5s2zMOIE0sB+wLHse/7550dxhlsY87qyf1zw2Drb+U38hMfix8KdE088Mapfv3604YYbRo0aNYriCsvijQtx25+F6+T8ccUf9e/f39ZZfDv7VpRimS+UfIgr/qhXr152D4F5WsszzzfzgceCKVpvvfWiWGSYLcUtbcsj7jH3jvv6008/2W+3FcBG3K6++uorC2Nf8tLtJS54bJ193CaAYwlzO40LkD/YLsd6GtwusQ3WWbAb8P2Jn3R43BwPbGcdeyYtHg7MXR0LOrOtWEzZ9b/22muWHk835+Ye84x27tzZ4kmnw+1+aXA/imWe7w8++MDuxaWXXmrXC+WZ57vQiYV/FFeI0ccffxy1bt26qOddh2Ka5zsWrlZvPfjgg5lnZlnn+S4pKYniho09v2uuuWa044472vOdq7yibOAZZF52L6+A3zzrPOeUZxzPPhzHQhyUB8TpeJnDs8F52J/jqGfY3+u47LLhuuuus+cqbmxZ3G+++aatx409K+vAy8GFC0vLPCBdnOPyyy+PYpFlYZyLMPb1OrNr167RSSedZL8rSzHN8z1o0KBo7bXXtjLbtU1V1dvEx3cGsCvsi4X7j97x+gibIN/Ie7SU2xz28uSTT1q+ks/s47aArXGc2xbHeBlLncY6i18P29jX4ZnHZlZeeeVo+vTpFlfc+LewCRMm2D5uf9SFjtvqxIkT7ZkhvaTT61ivn4cNGxZtv/329ruqyPc839UmvuPWjYlRbiY3b7PNNjOj4IZvttmmlgkDB55pGXbbbbfZhyD4+APhLtL5iATrffv2tf8YhK8D+19wwQXR0KFDTZixbb/99osuvPAC+33vvWOjGTNm2O899tjT/l999dV2LAZL/MDHLcaPHx9dddVVUfPmzc1I+egG+2OYGDIfk0D4UDESzv5pjjnmmKhPnz72+9lnn7V9KLT4UAe//dz33XdfZv2GG24wI/L1F1980Y6vCMUivuHUU0+16+QeUjCUV3zzgREqRK8At9hii2jEiBEm5F2M33///dHYsaUfCOGh5Rho3759tMsuu1g4HzuhsLjzzjstXwk7/PDDo5kzZ0RrrVX6oRMaYF5BIXwIGzx4sMVFIdSyZUsLo0D1CpBGhcdF2FNPPWXrLC46aJA99NBD0RVXXGGFEPbHdgomno+zzz7b1v0jLlRkDnbCdcCsWbMy8VIgUeiyftRRR9n9RKSzTmNw3Lhx9ptl1KhRdvzSKCbxTUVBRc71UZmzzn0pdvFNmeb5VqdOneiBBx5IthQn5Mett96arBU2s2fPjjbffHO799dee60JxoEDBy6T+ObjRv5Rpdtvv93iRkzfeecd9puPMU2Z8qZtp/OHjyMRThlB/UiZtfXWW1sY8fCf9PCfBtrMmTPtN3Ut/4cMGZKpZyhb+vXrZ79ZKG+mTZtmv/m4FP8RsmkoW7E7ytaPPvoo89EnPiBFuYRYoj4n7Nhjj7E0snTo0MHC6FxiAYRWnTql5x437hELqyrxTf1aDCAkqW9YnnjiCctPyueqgHqKezty5MgkpJQePXrEeXOs/fZ6gLwjjN+IYvTUM888Y+vAf+wGaCw899xz0TvvvBOttNJKts3zjA4O1lnQN4hxftPh6vDMe100duxYa6xhP9Tj2AT3oFu3Uo1FPYs9Y6vUPYR5uU7c1LFNmzax9QsvvNDq2H/+859FL76rdcAl/pL498SZbq9v8TlkWq/p0z+wbcOGDQ1vv/22+UTip4SfIwOEmMorNir7qAWviN1Fg22x4LZXwIAPJr6LDEiKhYjtGwufcP75F9i+jz76iG0j/JlnJtj/uAFgcfNaw/052Yclvh/mA8U8tnGFl0k/LiTxg2O+triMeBqz4RqB13NMPcarFz5aQTycm9dPsTHZK1viiIWODaBiO+vMB1xRSDPnLYaF19QQF0A2X3JF/P7Ia/KCe8Y1r7vuevZKPBbE9rocmxg8+Dy7l9xjXqkDr8WxK8LJD/KPmR6IizzZdtttwz/+MSS20Xm2Dx9PYeYH3BnwnySMGTHYnxku+LgJYdjxu++WfjwlLlgs7O6777ZxA0zrRn4SxuvVuFCxdOOOgB3h84jdYwe8wl+0aFHGDlgHtqUhDsD3FpcId+PBXjkOe2UeZqas82P5wAvbuE7iLy+cK1f+FdpCnscCxdLMq1ZeZ3Mvix3cBeLKz/KO17YHHHBAsqV4yZV/hbisv/76mWklmesc/37Km2UlFhsWP2UTeUudeO65gy2P40ZjXF6VzvNO+RA30u2ZxaeVV/S4qTAgljKQsgU3A8oX4H/6N3UpYwKoz4Dy0csBygVe11NGAB+C4hjKEdLmxOLGZtghDfh6Ux/iqhSLe4uXe0IYcY4efYuVr/j8MiaBMAYLe306aNCg+H+pFhg06Eyre6tqfvh0vhXywoetyBfqEKY3jQVuJs+qip9++ilzPu47bnXUMYCvPvXcd999F+fXaMuLuFEZ4oZgxhYc8hwIx97QJNgu4XfeeafZKnqMdeLB3Ra7Ir/T10QaWN9hh+3NtQV7we7Zj2X8+PHh/vtLNRb1LB8QiwW4jaUhDI2AKx1lPK5Un3wy28Jj0R1mzpwRx7FqcqbipdrENzceY8N3kZuI3yKj9clwKkoyFH9HfFTJvPr161km8VEKChx8xhEY/OdLb0CGYlzZIBaYJgvxwcNNBjJTAaP2MTgKk9tuu9X84BBHnBNjzQU+kghn0seCLxPHwCqrrByefvrpuNA818R+WWAwzJIwa9bH5v/GuTgO8XfUUUdZZXrmmWdawYQQI82nn356pQZh8mBxvmJYDjnkEHtoyUceOAZ1lZUPabAPKi0ab/isYhdbbLG55S1f8Pv666+t0uI/YpR7ykAPChgEPgPpOJ4ZHpjBgXAqKHyGmW6Orw5ik95IvP/++y3fqOQIY/DHAw88aOFUZNgFjYf//Oft2GZftinpCMPOKGCIjwKDMD7GwrNAZQbEv9Zajc2u8QGmUMLeSXvcwrcKamkgDriuwYMHW3w0XLEhCnmeH+yLdOK7yrVyLRWxLQrcXPlXiMvQoUMzFQaNZHzri12AU3aQX9gsjUUqnWIHf89c+VdoC/eaDhyeWeoVBqQiWHiOKgudAzSO+c9UjfiyUn9QfiFoqRcoD3mGea75iirlAnURQvXhhx+2Dh32R8zQkC8L30YZSzlBueN1GWMTXnvttUzjfOzYe030cG5v3APlGDbIQtlCPcoHl4CykE4IGibYJ+MKeO4QS5SvhHXrdoh9eIpjp06dauU16eK55HqJoyrgPubKw0JbELIMuuS+U9/17t3btE5VQJx8Q+C0004z+2Lh42F0SkyaNMkELWVIx4672Zz/bgsMBCeP3BaywX4Q2ldddZXVMdRXxIWOo5FF5xT2im1wTdn1OMcTxncKsGl0CmNGqHfZRt3EOBTsBR1AZxmNTOyDZ+PKK6+yMpD6HD1HnUq6udYPPvgwbhgU/1Sn1Sa+HTKOBVFA65nCDeFJ7+MzzzxjN5iHvV69+nZjEVjffksP5zdWeCBmDjjgwCS2UtIGw28KSsQXA4OAD0bQI05GO3/96/5h442b2owDxL3qqqvkNDx6SgknnQwOeP755y0uDGaFFVa0wQmI83RhlZvfTRSwINrowfJBWRgcaWZhOw8jBVo6veWFe8ZDUQwLPcPkNSCaeahoXZcH8sRtiYFoPMgUDhQyVBLvvz/dHlQqGwplCnjeVFDwMzCO/OzUqWMshqdbXpKn9Ab897+lI/opCLChww7rYa3sr7+eZ73MhFFp7LHH7nHaI5vpAdvlIywUEgxEohVPfBRIFH4MtKOBRoPQv4TokP5GjRpb+ikMsQXmVuZ+8GGVgw/uluxZNtgN943/NDRIJ/GyjkigUARsizcvNHq4R+WF+5sr/wptIb/JD7cp8pk3EpV5jgoN7JXFGxbFDo3BXHlYaAsdRnvttVemfEdk0mHCW6tlgTKHZ5R4ebuGgECQ0tPOG0HKMhrglFk0oum0wq5ZPvlkTmjVqpXZw95777PY7BlejywJjqNBTvm79dZbJ6Ehrt86LLbucE7SRd1CZwUdENTDQAcBIMaJ929/+5uVsQhtpsgkbOed29sxhHPNlK2UhRzLAOWqsmnq5lx5WGgL94IyGhsABC2NqaqCuhG74l6zIHp9UDWdfnQ6duq0e0bX0BmF0KUzNJtsTYRt8WbD7YQ6i+N79OhhYVxfrmfDr5XrpFMU8c2x2DeNSNbxYiA9++67T1zPrhmL9Fn2sTN00u67d7Lj6fhce+11rdFKvUujBVurCVSb+MYYcAvw3mZeF3DTEbAIDipODIVtZBSG4AUJrUVaOcSBMSBogN9s41igwHLY30FoEDdCxI3JX8fz4BMvogpDoKBJ9wryqobWHWIIMcXMA6SbdNETQdzZBpoNcX7//Y8mBBHWtEQRaOnXbTwg3AcKLEaG0wNbmR4BjBfhVwwLPTzArA4UCgjQpd1LwD7IP3ptsBcKL/KDa/cvAf76Kx9JiazyRCxjG4hjhJjbD6+7fvnlVzsn8bDt559LW+xegLAv+QLYGrAf21daaXHbxQUFwUdBxnlpYNKbzhR1zDjCOaicKHypePxasQt+k36uA9vlP3aZ/RowFxQ+VIY02CiseD1NXF7g+XNDhYudYcfpZ2VpIOxz5V+hLeQnFTz06tXLXqlzX8pjUyK/UG7mysNCW3hOXGAiknm7xLO/LDbFM8jsMZQHLHQOUY6kyyvKfsorygHeFHM+BDDP8nfffb9Y+UR54c86gj3d2+1wPKKHOg6RxIwrvMnDpc7hLWJZ4EqHgKPuIn4X317PeqcJ6SHtLJ5GnkvqXspI0sH1cZ1cy+eff16hjoAlQR2eKw8LbaHn10UqLidHH310cgXLDnlODzdvWt2+cEvkvIhkZu8BbI5t6BoawrytpV7KhjBsk0YSdRH1WJcue5tYBmx57Nix1qFDxw9uNOijsqDRRa/5+PHjMu5c6COeM+wEsKEVV1zBzks9ht34Nvb9059Wsv2pd1nnOmpCGV+tPd88dPRGIzYQ4giljz+eZa/yELwsfLGNzPObiTF9//0PoXnzZmYA8MILz9t/L1zYnwKBuNLHOemM4YGHiRNfssx95513YzFVP07bd9ZDOGfObDuWTOV//fqrxa39iXYcvQ9cAwUiLCnDOdYLJMQRomD11VezV5YUehgUEC8LjQ32waeO3lsMqzIGlb7uQob7i8vRwQcfbH6LVCwVuV4Kd7el9PRmnjf0LFDg4FKEXVGB0rChgKaXGnDvaN5848XO6wUCr+BgwoRn4vzYNs7LlezVLzC92wMP3B/by89WIbvtYscUEghwKjrSR8ONc7IfQpxeKirINOnzU0m1aNHc0k3Bw9cQc8E2YH96Ikj3xRcPNHFAI4H7C9gZ94GG3rhx48z3jwKzIhSLTZHHXCMVBO4n9IyIwqRYbIq5hfGvptzGdZGG97KmneMRMpRdLHQAbbJJaXmFgPHyimkcqQe8TPPj2rZtbeUDvPjiCybOHcTwtGlTk7U/8sYbk0xQMc0kApg6yssfzuP1YzbUjZQx1LWk0zs5vLfU51jGRYdecN42eufKc889a9dJ/YngxB/cr7Es0VcZykp7oYHbEOUz8/vTCKPOqOrnwetGFsQseUyji3OS9xtt1MTqQTQQAhxb8MZSGvKdBhp2j8ai03T48KsWSy/+6/h/05CgjluSDz/1PPzww89WRwNx02lEowGef/4F+88bEx9LgDsLYG985Red6PUuDQ0aM8VOtYpvRIiLTqAgwdeIgYf09tKrzE1GmKehRU5GEY5vbd++/ZItwVrjuKvgiz179pwlCmOMxMOPOupoe2UHGCPCjEFoXbt2NT8jCkT2XWed0p4zWle8/sN3mJa6n6cseKDw68NVhdbg6qvXN384hCL+WLQUKcCIh/vCgE0MGGihMoiBh6amQsu5V69eNnjR3YMqUgBl21I22AUVF4PusC3cfLjX9K7TUm/fvn38sL9hlQSFDkKNigsbwZUIVyhekSGW6Zmnx5rChVfCY8feF1q12t4KDLddKhze6uDWQdz0ZuBighDm89vEwcA5CjPsJ9vGHQoaXK2AtJ1wwon2Ow1xUtlhWywUPKSlQ4d9rUGDjyj3kriwN56p888/P/7dMPTs2dPevnjDsCaBUGIANc+X98xVdaVW3VBWkKdDhlxk61Q+rHtPE4PbeMNB45BwFz3My80bIFF1YDvcZ94U8Vo93chfVrLt0ssrfOEpT6gDKK/SwppjqJdw/+CZJv+feuppKz/9rRzlzgknlOSsO0rfAtW13m/KMXqxEWecx10/ctWbQBlJuQbEgwiiDGbh3tDodzulrKM8wnecYygvmXMeNwPKbFzDuEbOTUcAZW5tAW1BI4G513FRrOpymPyj/kh/Z4SyH6jP6LSic4/zku90aKJr8NsmLzmexhVpxCYpb6j7SjtE68a21yYufy43/QJcD2OVcM3yudrRdSzZUOehs7xTBNGPSwn1FB1WvP0mvZRjjEeg8Ul6qY+94Yvt4bbE2ARsCO2GzZVVnxYT1Sa+eej8VVMaBhYibBkRzT74T9PCYl/g4eSmk5k84IhfhDYFIfsj4Ngfnzn2wxhYpxfZCzh6B2mNUVFhXBgen3ZmnUGOGB2ChFbUN9/Q07CCnZc00MOw6667xes/27kp+MhsH8zn8ftvhxYlr+rwSaLnZNiwy82YMWRE2dZbb2UtflqVGKH36vNgMCilQ4edzX1hSa9wihkK4v79+9trqIpSli1xr3hYgV6ak046yQoVbItGHvuzDwKcXm8aQwzy5fUuApbeCAokhAz5QT4z+INXdPynssDVhQYgdoAfN/sRP1AQ4DdO3PTu8JtKlB4H0kHLHjuj4nJXGK4DmwXWqeTYzkBBxCSVcTY0Ejge26KCQ2xSqFGYkx7uT5MmG5nLFOfGzmhEdO3a2WyxbdsdrUe+pvjKORTKNLZ8LEWxQUVHrxj5SqOUQWvkNev4swI9o4gm7Jhw7ArIa3e5EVUHDVmERlV2hJB3PL9pEKe4qWWXV9RJ/qaKOoZ6h7KIuoT85y0qYdRpiBHqq6ZNm1n942+/KNMoF9kPIcPzQV3Gh53o/aSeYl8WHx+ShriwO9wsgR5sL4OxTzoqqENJz5577mFv1+hIQwSWvl1sbuUrdThjMCgHucZu3UrHs7Du5XZNh/KdMQOU1eRLdUBDCtcW8oOFOgvQFpyTfKGNRYcRdo0t7LRTu/Dyy69YXUG+sh/1M/UJ+gbIv3322TfTE77uumtb3cnAWnq80S284UVcU5dhIw6/sXnOxzYaldgsuoz6D3uns4n00jvOx834j31jH2gknhviofedTglsiH3omCWebA1WbNSJBWu5u4qo6Mo7HR4PPq11/E7TrSIKGPeRRTDx0CIMEAlkCEKVV/gugGi90TvEf3olKAgYOEKBQtJ50PmPoEckMX0SvZ4IDQyLXgIykgqMHgAeAkQV56fi22CDDWNjWGjxk5mIFnym3FeKfTEAMhxxhJjG0HnFRnodhJtXhjwMvF6idUYlibEzOwcDPTE4GgsYHYKOgpDXcQwEJb0dO3bK+TqoLBiIQKuwGEFI8gAzQHFJ8KDxepN7mvYXpOLiXnFPgYLDRQsimzco9MrQeNt88y1iW9jQfmNvVC689SCvfvnlf7FNPmoPOz1EVHSA/VIZMtgJYZ22XeyQuLENXu1RoFDI0fNDxYOPP/tT4GGjvBXBxjgH6cRWuX4KKMQ3BTRf7KJXgm3YgotKfMuxF8dtGJunMuU5wiWmZctN7f5g61wDBR/+dltttWX8PM61tFFpLgnSTmGHMCxG8PumF45nq5ChDCB/e/Q41MTL8ceXhO7du1sDj/RThjFLAc8GQoUvTFKZ0mM0btzD8b6Hmt1U5Gt2ywvKTcrLXr16JSHFBV8oxbWJHsLKwKBFhC51XRrqGhrtQFmE2OXZpZMAgUP9RJ4jaOkgoIFG+UadQkMN4c3bN8oXfKkRt5RJdABwr9lGLyUzS1DOEC//aaBzXsob6mnKUeo1F4fUxZR72CXTHtJBRm81gov9eMtLnJRR2277Z3srCIgjjqNsQtRTjlF2c02UhfRykgbKVTrTvNyuDLyBpKxkKUaqqt5G+3B/yQvH6yYaUeQTWoo8ZF/c9GhAoWfYju1gn5Q9xMH+dJSVapGOVl+R79Rt2A72SDz0WgNaiXKMGbWwYa+zsCtsFTdT6ihsi84S4idtiPFJk163CQ/4jc1C2qYR+mg/OlB5FkiL17GUJ+hEysOqgo6vikzJu8zEN7LcVOQjO8tKfGNpFERxgZL5sEAsUpOt5SfOTDs2zrgkpGZRTB/ZySZ+yMr1kZ1lIX5Q//ABgkIjFuFmo3GFGcUNumjttRtnvk6Xb2JRWNRfVOQDEJOK4CM7ccVkeT516lu2zkcxevfuHcWNpWjFFVe0bTNmzLCPfR1wwAH2YZS4oWjhn332aRSLc/tKbjFAfvDxo2KF5yFulCZr+eecc86xfCcdsfiISkqOT7YsDh+x4YNfccM5Cam5xCKpaL5wmYtirrdrKpS/+aTa3E6WFXp16DVnmj4G6DH9WWV8xfxVHK8+RO2D1nKhv+KkN4jXw/j907N+3HHHV+lrb1F48DaDMm7TTTezdWY7wiUOeJuzzjrrmi3QKxSX0xaOTfDmYvz4x+xYUTughxofb//I10EH/T3ZsjiMP+FNKm/qhBCFTcGKb/yDqIxKSkpsYdClTz9TEXgN4hPQi9oHfpGF/moSQYVbQamd9w29eh2TGRAlaiY0CHmt6p0DuMnQCON1PR0FRxxxuLnXLVy4yNz2eG3LQCXckwhnP3cTEDUbBqIx/onygSkDcQfIRdeuXWxMFQ15IURhU9ClNz6yfPqWhS97VQYc9Jl3mQEDovaBv2ZZlVUhwUAv7Jw5WPFrEzUbOhJ89iNgHMKXX35lAhsYT4Kv9KuvvpKZ5o0xKYTjS8k4Ep/xQtR8EN+UDzTSyxoTxKBtZv+pyllahBDVg7pOhBAizzDgiUFN9H4Dg+n44qsLagbF8cZm+vT37S2gu54w8JcB5MxA4EJdCCFEcSHxLYQQecb9ckeOvCG88srLNrf066+/lnFDYX5bZvcBZooAZm5iBh+fZcnDhRBCFBcS30IIkWeYVo55dS+//Iqw884dzAec8Qne8810YEz/hVsKghyh7cKcuXCZfsvXhRBCFBcS30IIkWcQz8zRzZze+HQffPDf7StviG7cSpg/vkmTpjanLW4n7E9vOIKbgZl8ZKkyA9CFEEIsfyS+hRBiOcFHkPggxZgx99o6YpwPQDE7U/369cJLL71kHzzC15sv9DILDrPjMBjzootKP0kvhBCiuJD4FkIIIYQQIk9IfAshhBBCCJEnJL6FEEIIIYTIExLfQgghhBBC5AmJbyGEEEIUFf7hKSGKEYlvIYQQQggh8oTEtxBCCCGEEHlC4lsIIYQQQog8IfEthBBCCCFEnpD4FkIIIYQQIk9IfAshhBBCCJEnJL6FEEIIIYTIExLfQgghhBBC5AmJbyGEEEIIIfJEhcR3nTp1kl9CVA2yqcKibt3ib4/XhGuoScimRFWj/BBVTb61SJ2oAt9o7dmzZ7jmmmuSNVEIDBw4MIwaNSpZKy6mTJkSXn311XDkkUcmIWJ5s2DBgjBixIhw2WWXJSHFxS233BKaNWsWdthhhyRELG/eeuut8NFHH4VevXolIcXFgAEDQv/+/UODBg2SELG8ueOOO0L79u1D69atk5DioqSkJAwbNixZE8sbhDfP+O23356E5AHEd3lhdy2Ftey0005J7hQfkydPznlNWpbv0qdPnySHio/Ro0fnvCYty3eJG0VJDhUfsVDKeU1alu9C/VGstGvXLuc1aVm+Sz6pUM+3EEIIIYQQovLIcUoIIYQQQog8IfEthBBCCCFEnpD4FkIIIYQQIk9IfAshhBBCCJEnJL6FEEIIIYTIExLfQgghhBBC5AmJbyGEEEIIIfKExLcQQgghhBB5QuJbCCGEEEKIPCHxLYQQQgghRJ6Q+BZCCCGEECJPSHwLIYQQQgiRJyS+hRBCCCGEyBMS30IIIYQQQuQJiW8hhCgAJk6cGA499NDQtWvXJERUFO7hiSeeuNg9nDlzZmjUqFF47LHHkpDcsJ392F8IIaoTiW8hain33ntvqFOnzmKLixa2sVQ3iKX0+VlfXmSLtvKSTn9Zy7Bhw5K9y2b//fcPY8eOTdaKB+5Zrmvecccdy3XdVQn38IYbbkjWhBCiMJH4FqIWgjjq0aNH6NKlS4iiKLP07Nkzsy0fdOjQIYwZMyZZWz64eKyMaKOXtE2bNmHGjBmZewhDhw7NrPN71qxZFr4k5s+fn/wqLp544okwdepU++3Xzf1AfJ955pnWqMkXue5h8+bNLXyfffZJQkohfWnYzn7sL4QQ1YnEtxC1DIQmILwRTmlwe0A41RYQhk8++WSyVnE+++yzcPrppy9RsA0cOLBohXV52W677ZJfpXA/rr/++tCiRQtr1EybNi3ZUhjQaJo8eXKyJoQQ+UXiW4haRNoN4Nxzz01+LQ7CaXn3RucLBCI9tYjEykDPPQ2WpZEPF55CpGXLlvZ/0aJF9r8QmDdvXujevXuyJoQQ+UfiW4haxI033pj8KhWOZYGgzBaV9BLTa+5LWsint+HGwbb0evY+ZfkCz5kzJ7OPC7c06XhZ0i4N2f7j9G66S0lZ58s39ACnfaT5nWuAH/tx/eyTnQ9cCwMD2cb/UaNGWTiikt8cx+BBjmMfX3fYL50XbHdfe9JyzjnnZAYepuPIlc6lwblg9dVXt/9+bk8/1++94jRQWOf6/DrYJzvv2N/TxUJ8fp5cpOMFfnuvt6chfe/S4w64b54OP5dT3vQKIcQfiIQQtYIZM2bgkGxLixYtktDy0aVLFzsO0vGMGTPGwoA4PXzo0KGL7ef7svg62yEd5uny8/HfOeGEExY7zo/hXA6/PZy4fD0dTy487UvbrzxkpykN5+nevbv9njp1qu3LdTme7pEjR9r6+PHjLczvs98rjgXiYp17kr524pw7d64tfi/9vrGNc/h2frOAx8dCfGznuIYNGy6WzlxwzNlnn22/Oc7zK31Pif+ll16y38Tbpk0bOzdhnIP9CfN9iI8wTzv/icPX/bjse+jnTMebzhO/Jw7bfL90+lj3vOA/6+RBedMrhBC5UM+3EKLclKdXLxY25uecJhY3f+jBxV86m9tuu83+M/AT8MfO7nG9/PLLk19LhrhIRyzuwu67756ELl/w/T7wwAPtN37S3Kvs66MHtaSkxH77IMFPPvnE/i9cuNCux32s+/XrZ/+5l1wr9xkOO+yw0LhxY1twrYEHHnjA/pOGzp07Z7Yff/zxGT9/enNJExAf23FDatu2bbl6vpmthfSvtdZaFlcsisPdd99t2+hFZvsuu+xiPcRcBz3Qfu5x48bZ/27dumXeyuy99972321l9OjRFgfHEgdxffPNN2UOliUej3dJcK2DBg1K1kpxV5m99trL/nuekBfpeJeUXiGEyIXEtxC1hPSgQBc8TrbLhi+8VgcGZsaN9dC0adPF/KNdFFYnLmTcPxthSdqcsmYS2WCDDez/hx9++IfGwPIC4YuYQ5gy20ZFB3siALkeXC9wgWBqvaVBvjMjy7PPPmvrnJt76a4pzEhSVSDkSR/5xLVyHgQ8vPPOO3+YXceXJblApZkyZcpiM8mkl6qGBo7HS6OTRoUQQlQFEt9C1CLoiXTSvq2IH4RGevuYMWMWmw0FwcsgzWzhnk8QQPR2VofYygcI33bt2oW333473HzzzZle5vKCbzINIgTzrrvuGu66665ky5LxHmxwf/JHH300HHXUUZne8nwwadKkJfpnlwdvROQD/N95S9CgQYPw1FNPJaFCCLFsSHwLUYtwFwS45557kl9Lx3v96NnMJ/Sye68oohPhn24gVDfpNwLLCqKX+dOHDx8eLr744j9Mz1ce+vbta+KVRhG91mussUaypWzYnx52xDp06tTJZvvAFrLnvq5OeGuCiwj56IMsgV7l9PqSoAHBtdDrn3aDyXZpqgoYRHnJJZeE119/3d44pN8cCSHEsiDxLUQtw3uu8ZNNz95QFoicdG83vZfVBbOdgPt+X3TRRfYf0i4a6V776iTdQKHXemm4iMQ3Oxv3IZ49e7b9x+0DFw3/7T3C6Z5h/+3xLViwwAQs4eTL448/buFAHA7pZh+WwYMHm9uJC1SO9/wkvd6TTHys+zn9P3hcZbGk63Y4P+nAz7tVq1aZRg0z8NAQ+fbbb22/dBwe5v/POOOM0LBhQ7Nd9/tmYfYUyJX2XPH6GAD2o3cbfHv2/tgk+6Xzn3tdnvQKIUROIiFErSQ9y0h6YeaHbLoks0OwMLNELHwy68RDmK/7Pun1ssJiEZg5nt/pbYSnSR9PetJpIs3MOOHrvvgsFGWRjiO9+D1Ix7k0csWVfX7fh/vHNmbHYNaM7Lxgv+zrIYzZT3yWDY5l1hPW2cYMI6Sbbdwr34/ZQdjm+D5sZwYPn1GF+LKvAdLrHpYm+xiWsu476UjPqMJvriH7WkmjpzMdBuzPDCOEcQ1cq19fev9c9zAdB8eSD/zOPhfHYY9u58TFOuclzGc+8WVJ6RVCiGzq8CcuKIQQQhQ5uHDgDx6Lx3IPYhRCCJFf5HYihBBCCCFEnpD4FkKIGkK237IQQojCQ24nQghRA3CXE0euJ0IIUZhIfAshhBBCCJEn5HYihBBCCCFEnpD4FkIIIYQQIk9IfAshhBBCCJEnJL6FEEIIIYTICyH8P08hVuGb4/ASAAAAAElFTkSuQmCC;" vertex="1" parent="1">
          <mxGeometry x="160" width="735" height="115" as="geometry" />
        </mxCell>
        <mxCell id="KOHqjul1uBOGln52bO3l-9" value="" style="edgeStyle=orthogonalEdgeStyle;rounded=0;orthogonalLoop=1;jettySize=auto;html=1;" edge="1" parent="1" source="KOHqjul1uBOGln52bO3l-4" target="KOHqjul1uBOGln52bO3l-5">
          <mxGeometry relative="1" as="geometry" />
        </mxCell>
        <mxCell id="KOHqjul1uBOGln52bO3l-4" value="&lt;i&gt;Data Preprocessing&lt;/i&gt;" style="rounded=0;whiteSpace=wrap;html=1;" vertex="1" parent="1">
          <mxGeometry x="270" y="160" width="90" height="40" as="geometry" />
        </mxCell>
        <mxCell id="KOHqjul1uBOGln52bO3l-10" value="" style="edgeStyle=orthogonalEdgeStyle;rounded=0;orthogonalLoop=1;jettySize=auto;html=1;" edge="1" parent="1" source="KOHqjul1uBOGln52bO3l-5" target="KOHqjul1uBOGln52bO3l-6">
          <mxGeometry relative="1" as="geometry" />
        </mxCell>
        <mxCell id="KOHqjul1uBOGln52bO3l-5" value="KNN Model + Random Search" style="rounded=0;whiteSpace=wrap;html=1;fontStyle=2" vertex="1" parent="1">
          <mxGeometry x="390" y="160" width="100" height="40" as="geometry" />
        </mxCell>
        <mxCell id="KOHqjul1uBOGln52bO3l-11" value="" style="edgeStyle=orthogonalEdgeStyle;rounded=0;orthogonalLoop=1;jettySize=auto;html=1;" edge="1" parent="1" source="KOHqjul1uBOGln52bO3l-6" target="KOHqjul1uBOGln52bO3l-7">
          <mxGeometry relative="1" as="geometry" />
        </mxCell>
        <mxCell id="KOHqjul1uBOGln52bO3l-6" value="&lt;i&gt;Model Testing&lt;/i&gt;" style="rounded=0;whiteSpace=wrap;html=1;" vertex="1" parent="1">
          <mxGeometry x="520" y="160" width="90" height="40" as="geometry" />
        </mxCell>
        <mxCell id="KOHqjul1uBOGln52bO3l-7" value="&lt;i&gt;Model Evaluation&lt;/i&gt;" style="rounded=0;whiteSpace=wrap;html=1;" vertex="1" parent="1">
          <mxGeometry x="640" y="160" width="90" height="40" as="geometry" />
        </mxCell>
      </root>
    </mxGraphModel>
  </diagram>
</mxfile>
